<svg xmlns="http://www.w3.org/2000/svg" viewBox="0 0 64 64" role="img" aria-label="DevSecOps">
  <defs>
    <linearGradient id="shield-bg" x1="0%" y1="0%" x2="100%" y2="100%">
      <stop offset="0%" stop-color="#22d3ee"/>
      <stop offset="100%" stop-color="#0891b2"/>
    </linearGradient>
  </defs>
  <rect width="64" height="64" rx="14" fill="#0f172a"/>
  <path fill="url(#shield-bg)" d="M32 8 48 16v16c0 10-7 18-16 22-9-4-16-12-16-22V16l16-8z"/>
  <path fill="#0f172a" d="M32 18a6 6 0 0 1 6 6v2h-2v-2a4 4 0 0 0-8 0v6a4 4 0 0 0 4 4h2a4 4 0 0 0 4-4v-1h2v1a6 6 0 0 1-6 6h-2a6 6 0 0 1-6-6v-6a6 6 0 0 1 6-6z"/>
</svg>
